<?xml version="1.0" encoding="utf-8"?>
<!-- Generator: Adobe Illustrator 25.0.0, SVG Export Plug-In . SVG Version: 6.00 Build 0)  -->
<svg version="1.2" baseProfile="tiny" id="Layer_1" xmlns="http://www.w3.org/2000/svg" xmlns:xlink="http://www.w3.org/1999/xlink"
	 x="0px" y="0px" viewBox="0 0 32 32" overflow="visible" xml:space="preserve">
<path fill="#6A6A6A" d="M16,31.75C7.315,31.75,0.25,24.685,0.25,16S7.315,0.25,16,0.25S31.75,7.315,31.75,16S24.685,31.75,16,31.75z
	 M16,1.75C8.143,1.75,1.75,8.143,1.75,16S8.143,30.25,16,30.25S30.25,23.857,30.25,16S23.857,1.75,16,1.75z"/>
<path fill="#6A6A6A" d="M20.181,19.423c-0.248,0-0.493-0.019-0.735-0.058c-2.103-0.333-3.395-2.01-4.535-3.489
	c-1.058-1.373-1.971-2.558-3.305-2.667c-1.307-0.106-2.767,0.838-4.363,2.807c-0.262,0.32-0.733,0.37-1.055,0.11
	c-0.321-0.261-0.371-0.733-0.11-1.055c1.928-2.376,3.829-3.508,5.651-3.356c1.994,0.164,3.202,1.731,4.37,3.247
	c1.063,1.38,2.068,2.683,3.582,2.923c1.488,0.235,3.218-0.601,5.133-2.49c0.294-0.291,0.77-0.288,1.061,0.008
	c0.291,0.295,0.287,0.77-0.008,1.061C23.871,18.43,21.962,19.423,20.181,19.423z"/>
</svg>
