<?xml version="1.0" encoding="utf-8"?>
<!-- Generator: Adobe Illustrator 25.0.0, SVG Export Plug-In . SVG Version: 6.00 Build 0)  -->
<svg version="1.2" baseProfile="tiny" id="Layer_1" xmlns="http://www.w3.org/2000/svg" xmlns:xlink="http://www.w3.org/1999/xlink"
	 x="0px" y="0px" viewBox="0 0 32 32" overflow="visible" xml:space="preserve">
<path fill="#6A6A6A" d="M12.769,26.943c-0.118,0-0.238-0.028-0.349-0.086c-0.319-0.167-0.475-0.539-0.368-0.884l2.328-7.591h-3.362
	c-0.239,0-0.464-0.114-0.605-0.307c-0.142-0.193-0.182-0.442-0.109-0.67l3.404-10.701c0.1-0.311,0.389-0.522,0.715-0.522h5.643
	c0.249,0,0.481,0.124,0.621,0.329c0.14,0.206,0.168,0.468,0.075,0.699l-2.541,6.365h3.92c0.287,0,0.55,0.164,0.675,0.423
	s0.092,0.566-0.086,0.792l-9.371,11.869C13.211,26.843,12.992,26.943,12.769,26.943z M12.043,16.882h3.352
	c0.238,0,0.462,0.113,0.604,0.304c0.141,0.191,0.184,0.438,0.113,0.666l-1.453,4.737l5.934-7.515h-3.479
	c-0.249,0-0.481-0.124-0.621-0.329c-0.14-0.206-0.168-0.468-0.075-0.699l2.54-6.365h-3.986L12.043,16.882z"/>
<path fill="#6A6A6A" d="M16,31.75C7.315,31.75,0.25,24.685,0.25,16S7.315,0.25,16,0.25S31.75,7.315,31.75,16S24.685,31.75,16,31.75z
	 M16,1.75C8.143,1.75,1.75,8.143,1.75,16S8.143,30.25,16,30.25S30.25,23.857,30.25,16S23.857,1.75,16,1.75z"/>
</svg>
