<?xml version="1.0" encoding="utf-8"?>
<!-- Generator: Adobe Illustrator 26.0.2, SVG Export Plug-In . SVG Version: 6.00 Build 0)  -->
<svg version="1.2" baseProfile="tiny" xmlns="http://www.w3.org/2000/svg" xmlns:xlink="http://www.w3.org/1999/xlink" x="0px"
	 y="0px" viewBox="0 0 32 32" overflow="visible" xml:space="preserve">
<g id="Layer_1">
	<path fill="#6A6A6A" d="M31.437,14.473L17.421,0.784C17.045,0.417,16.522,0.233,16,0.233c-0.522,0-1.045,0.184-1.421,0.551
		L0.563,14.473C0,15.023-0.154,15.802,0.161,16.506c0.315,0.705,1.014,1.143,1.823,1.143l1.924-0.006v11.873
		c0,1.237,1.064,2.244,2.37,2.244l7.277,0.006h0.15V20.515c0-0.383,0.328-0.693,0.732-0.693h2.716h0.409
		c0.404,0,0.732,0.31,0.732,0.693v11.252h0.15l7.277-0.006c1.307,0,2.37-1.007,2.37-2.244V17.643l1.924,0.006
		c0.809,0,1.507-0.438,1.823-1.143C32.154,15.802,32,15.023,31.437,14.473z M30.246,15.868c-0.029,0.066-0.094,0.143-0.23,0.143
		l-1.95-0.006h-0.162h-0.291c0,0-1.252-0.293-1.252,1.204v0.433v11.873c0,0.334-0.287,0.606-0.64,0.606l-5.576,0.006l-0.02,0.001
		c0.008-0.072,0.02-0.143,0.02-0.218V29.88v-9.842c0-1.022-0.763-1.854-1.701-1.854h-1.291h-3.598c-0.938,0-1.701,0.832-1.701,1.854
		v9.842v0.032c0,0.075,0.012,0.145,0.02,0.218l-0.02-0.001l-5.576-0.006c-0.353,0-0.64-0.272-0.64-0.606V17.643V17.21
		c0-1.497-1.252-1.204-1.252-1.204H4.096H3.935l-1.95,0.006c-0.136,0-0.201-0.078-0.23-0.143c-0.028-0.066-0.044-0.163,0.052-0.255
		l14.016-13.69C15.882,1.864,15.941,1.835,16,1.836c0.059,0,0.118,0.029,0.177,0.088l14.016,13.69
		C30.29,15.706,30.274,15.803,30.246,15.868z"/>
</g>
<g id="METRICS_AND_KEYLINES">
</g>
<g id="Isolation_Mode">
</g>
<g id="filled">
</g>
</svg>
