<?xml version="1.0" encoding="utf-8"?>
<!-- Generator: Adobe Illustrator 26.0.2, SVG Export Plug-In . SVG Version: 6.00 Build 0)  -->
<svg version="1.2" baseProfile="tiny" xmlns="http://www.w3.org/2000/svg" xmlns:xlink="http://www.w3.org/1999/xlink" x="0px"
	 y="0px" viewBox="0 0 32 32" overflow="visible" xml:space="preserve">
<g id="Layer_1">
</g>
<g id="METRICS_AND_KEYLINES">
</g>
<g id="Isolation_Mode">
</g>
<g id="filled">
	<g>
		<path fill="#6A6A6A" d="M16.872,5.789c0-0.414-0.336-0.75-0.75-0.75H6.916c-0.414,0-0.75,0.336-0.75,0.75s0.336,0.75,0.75,0.75
			h9.206C16.536,6.539,16.872,6.203,16.872,5.789z"/>
		<path fill="#6A6A6A" d="M8.804,8.919H6.871c-0.414,0-0.75,0.336-0.75,0.75s0.336,0.75,0.75,0.75h1.933
			c0.414,0,0.75-0.336,0.75-0.75S9.218,8.919,8.804,8.919z"/>
		<path fill="#6A6A6A" d="M13.9,8.919h-1.933c-0.414,0-0.75,0.336-0.75,0.75s0.336,0.75,0.75,0.75H13.9
			c0.414,0,0.75-0.336,0.75-0.75S14.314,8.919,13.9,8.919z"/>
		<path fill="#6A6A6A" d="M18.923,8.944h-1.934c-0.414,0-0.75,0.336-0.75,0.75s0.336,0.75,0.75,0.75h1.934
			c0.414,0,0.75-0.336,0.75-0.75S19.337,8.944,18.923,8.944z"/>
		<path fill="#6A6A6A" d="M8.804,12.803H6.871c-0.414,0-0.75,0.336-0.75,0.75s0.336,0.75,0.75,0.75h1.933
			c0.414,0,0.75-0.336,0.75-0.75S9.218,12.803,8.804,12.803z"/>
		<path fill="#6A6A6A" d="M14.65,13.553c0-0.414-0.336-0.75-0.75-0.75h-1.933c-0.414,0-0.75,0.336-0.75,0.75s0.336,0.75,0.75,0.75
			H13.9C14.314,14.303,14.65,13.967,14.65,13.553z"/>
		<path fill="#6A6A6A" d="M18.923,12.828h-1.934c-0.414,0-0.75,0.336-0.75,0.75s0.336,0.75,0.75,0.75h1.934
			c0.414,0,0.75-0.336,0.75-0.75S19.337,12.828,18.923,12.828z"/>
		<path fill="#6A6A6A" d="M8.804,16.687H6.871c-0.414,0-0.75,0.336-0.75,0.75s0.336,0.75,0.75,0.75h1.933
			c0.414,0,0.75-0.336,0.75-0.75S9.218,16.687,8.804,16.687z"/>
		<path fill="#6A6A6A" d="M23.544,30.291H2.273V1.547h21.271v14.418c0.593,0.483,1.098,1.068,1.5,1.723V0.797
			c0-0.414-0.336-0.75-0.75-0.75H1.523c-0.414,0-0.75,0.336-0.75,0.75v30.244c0,0.414,0.336,0.75,0.75,0.75h22.771
			c0.414,0,0.75-0.336,0.75-0.75v-2.516l-1.5-1.4V30.291z"/>
		<path fill="#6A6A6A" d="M30.988,30.655l-6.835-6.381c0.561-0.889,0.891-1.938,0.891-3.065c0-3.179-2.587-5.766-5.766-5.766
			s-5.766,2.587-5.766,5.766s2.587,5.765,5.766,5.765c1.512,0,2.885-0.589,3.915-1.545l6.772,6.321
			c0.145,0.136,0.328,0.202,0.512,0.202c0.2,0,0.4-0.08,0.548-0.238C31.308,31.412,31.291,30.938,30.988,30.655z M19.278,25.475
			c-2.353,0-4.266-1.913-4.266-4.265c0-2.353,1.913-4.266,4.266-4.266s4.266,1.913,4.266,4.266
			C23.544,23.562,21.631,25.475,19.278,25.475z"/>
		<path fill="#6A6A6A" d="M11.968,16.687c-0.414,0-0.75,0.336-0.75,0.75s0.336,0.75,0.75,0.75h1.267
			c0.261-0.52,0.587-1.001,0.968-1.434c-0.093-0.041-0.194-0.066-0.302-0.066H11.968z"/>
	</g>
</g>
</svg>
