<svg version="1.2" baseProfile="tiny" viewBox="0 0 9.178 18" xmlns:xlink="http://www.w3.org/1999/xlink" xmlns="http://www.w3.org/2000/svg">
<path style="fill:#ffffff;" d="M 4.9140625 0 A 4.25582 4.25582 0 0 0 4.7226562 0.00390625 A 4.67488 4.67488 0 0 0 1.3632812 1.2871094 A 4.56906 4.56906 0 0 0 0.001953125 4.6621094 A 0.18486 0.18486 0 0 0 0.18359375 4.8496094 L 0.18554688 4.8496094 L 0.85742188 4.8496094 A 0.18518 0.18518 0 0 0 1.0429688 4.6660156 A 3.70525 3.70525 0 0 1 2.0410156 2.0546875 A 3.56256 3.56256 0 0 1 4.7226562 1.0449219 A 3.25956 3.25956 0 0 1 7.2226562 2.015625 A 3.83867 3.83867 0 0 1 8.1308594 4.71875 A 5.57475 5.57475 0 0 1 7.9335938 6.3046875 A 4.36763 4.36763 0 0 1 7.3066406 7.5664062 A 12.13474 12.13474 0 0 1 5.765625 9.2148438 A 6.68842 6.68842 0 0 0 4.2011719 11.207031 A 5.99837 5.99837 0 0 0 3.7558594 13.560547 A 0.1858 0.1858 0 0 0 3.9375 13.748047 L 4.6113281 13.748047 A 0.18482 0.18482 0 0 0 4.796875 13.564453 A 4.267 4.267 0 0 1 6.3769531 9.9960938 A 9.92646 9.92646 0 0 0 8.5917969 7.3632812 A 5.78372 5.78372 0 0 0 9.171875 4.7382812 A 4.851 4.851 0 0 0 7.9648438 1.2929688 A 4.25582 4.25582 0 0 0 4.9140625 0 z M 4.3203125 16.251953 A 0.87019 0.87019 0 0 0 3.7167969 16.501953 L 3.7070312 16.511719 A 0.87507 0.87507 0 0 0 4.3164062 18 L 4.3261719 18 A 0.86594 0.86594 0 0 0 4.9453125 17.748047 A 0.83 0.83 0 0 0 5.2070312 17.130859 A 0.85093 0.85093 0 0 0 4.9472656 16.509766 A 0.87019 0.87019 0 0 0 4.3203125 16.251953 z"/>
</svg>