<?xml version="1.0" encoding="UTF-8"?>
<svg xmlns="http://www.w3.org/2000/svg" xmlns:xlink="http://www.w3.org/1999/xlink" viewBox="0 0 16 16">
  <defs>
    <style>
      .cls-1 {
        fill: #fff;
      }

      .cls-2 {
        stroke-width: .05px;
      }

      .cls-2, .cls-3 {
        stroke: gray;
        stroke-miterlimit: 10;
      }

      .cls-2, .cls-3, .cls-4 {
        fill: none;
      }

      .cls-5 {
        fill: #ec2089;
      }

      .cls-3 {
        stroke-width: .05px;
      }
    </style>
    <symbol id="small-grid" viewBox="0 0 16.04 16.04">
      <g>
        <line class="cls-3" x1="16.02" y1=".02" x2=".02" y2="16.02"/>
        <line class="cls-3" x1="16.02" y1="16.02" x2=".02" y2=".02"/>
        <path class="cls-5" d="m14.97,1.07v13.9H1.07V1.07h13.9m.05-.05H1.02v14h14V1.02h0Z"/>
        <path class="cls-5" d="m12.97.06v15.91H3.06V.06h9.91m.05-.05H3.01v16.01h10.01V.01h0Z"/>
        <path class="cls-5" d="m8.02.06c4.39,0,7.96,3.57,7.96,7.96s-3.57,7.96-7.96,7.96S.06,12.4.06,8.02,3.63.06,8.02.06m0-.05C3.6.01.01,3.6.01,8.02s3.58,8.01,8.01,8.01,8.01-3.58,8.01-8.01S12.44.01,8.02.01h0Z"/>
        <line class="cls-3" x1="16.02" y1=".02" x2=".02" y2="16.02"/>
        <line class="cls-3" x1="16.02" y1="16.02" x2=".02" y2=".02"/>
        <path class="cls-5" d="m15.97,3.07v9.9H.07V3.07h15.9m.05-.05H.02v10h16V3.02h0Z"/>
        <path class="cls-5" d="m12.97.07v15.9H3.07V.07h9.9m.05-.05H3.02v16h10V.02h0Z"/>
        <path class="cls-5" d="m8.02.07c4.38,0,7.95,3.57,7.95,7.95s-3.57,7.95-7.95,7.95S.07,12.4.07,8.02,3.63.07,8.02.07m0-.05C3.6.02.02,3.6.02,8.02s3.58,8,8,8,8-3.58,8-8S12.44.02,8.02.02h0Z"/>
        <line class="cls-2" x1=".02" y1="11.02" x2="16.02" y2="11.02"/>
        <line class="cls-2" x1=".02" y1="5.02" x2="16.02" y2="5.02"/>
        <line class="cls-2" x1="11.02" y1="16.02" x2="11.02" y2=".02"/>
        <line class="cls-2" x1="5.02" y1="16.02" x2="5.02" y2=".02"/>
      </g>
    </symbol>
  </defs>
  <g id="grid">
    <use width="16.04" height="16.04" transform="" xlink:href="#small-grid"/>
  </g>
  <g id="icons">
    <g>
      <polygon class="cls-1" points="4.94 15.4 .6 11.06 .6 4.94 4.94 .6 11.06 .6 15.4 4.94 15.4 11.06 11.06 15.4 4.94 15.4"/>
      <path class="cls-1" d="m10.82,1.2l3.98,3.98v5.63l-3.98,3.98h-5.63l-3.98-3.98v-5.63l3.98-3.98h5.63m.5-1.2h-6.63L0,4.69v6.63l4.69,4.69h6.63l4.69-4.69v-6.63L11.31,0h0Z"/>
    </g>
    <g>
      <polygon points="5.35 14.4 1.6 10.65 1.6 5.35 5.35 1.6 10.65 1.6 14.4 5.35 14.4 10.65 10.65 14.4 5.35 14.4"/>
      <path d="m10.4,2.2l3.4,3.4v4.8l-3.4,3.4h-4.8l-3.4-3.4v-4.8l3.4-3.4h4.8m.5-1.2h-5.8L1,5.1v5.8l4.1,4.1h5.8l4.1-4.1v-5.8L10.9,1h0Z"/>
    </g>
    <rect class="cls-4" width="16" height="16"/>
  </g>
</svg>